# xmcd CD database file
#
# Track frame offsets:
#	150
#	16250
#	32852
#
# Disc length: 755 seconds
#
# Revision: 1
# Processed by: cddbd v1.5PL3 Copyright (c) Steve Scherf et al.
# Submitted via: CDex 1.40Release
#
DISCID=1a02f103
DTITLE=キリンジ - 冬のオルカ
DYEAR=1997
DGENRE=Rock
TTITLE0=冬のオルカ
TTITLE1=水とテクノクラート
TTITLE2=休日ダイヤ
EXTD=YEAR: 1997 ID3G: 17
EXTT0=
EXTT1=
EXTT2=
PLAYORDER=
